<?xml version="1.0" standalone="no"?>
<!DOCTYPE svg PUBLIC "-//W3C//DTD SVG 20010904//EN"
 "http://www.w3.org/TR/2001/REC-SVG-20010904/DTD/svg10.dtd">
<svg version="1.0" xmlns="http://www.w3.org/2000/svg"
 width="256.000000pt" height="256.000000pt" viewBox="0 0 256.000000 256.000000"
 preserveAspectRatio="xMidYMid meet">

<g transform="translate(0.000000,256.000000) scale(0.100000,-0.100000)"
fill="none" stroke="black" stroke-width="40">
<path d="M962 1983 l3 -138 138 -3 137 -3 0 141 0 140 -140 0 -141 0 3 -137z"/>
<path d="M543 1826 c-279 -68 -462 -354 -413 -645 37 -220 231 -414 451 -451
250 -42 497 82 603 305 48 98 56 151 56 350 l0 175 -140 0 -140 0 0 -172 c0
-160 -2 -177 -24 -223 -48 -105 -164 -173 -276 -162 -72 6 -124 30 -175 82
-108 107 -113 267 -12 381 45 52 124 94 175 94 l32 0 0 140 0 140 -42 -1 c-24
0 -67 -6 -95 -13z"/>
<path d="M1733 1826 c-73 -18 -169 -68 -226 -117 -67 -58 -135 -157 -165 -242
-24 -66 -26 -88 -30 -269 l-4 -198 141 0 141 0 0 163 c0 192 10 233 76 306 61
68 125 94 218 89 82 -4 134 -26 186 -78 52 -52 74 -104 78 -186 3 -57 0 -81
-18 -123 -38 -88 -153 -171 -237 -171 -23 0 -23 0 -23 -141 l0 -142 63 7 c190
22 360 141 441 311 41 85 56 152 56 253 0 153 -52 274 -165 387 -76 77 -158
126 -250 150 -70 18 -209 18 -282 1z"/>
<path d="M1310 580 l0 -140 140 0 140 0 0 140 0 140 -140 0 -140 0 0 -140z"/>
</g>
</svg>
